/* XPM */
static char *_dndn_e0k1l[] = {
/* columns rows colors chars-per-pixel */
"64 64 256 2 ",
"   c black",
".  c #0000A8",
"X  c #00A800",
"o  c #00A8A8",
"O  c #A80000",
"+  c #A800A8",
"@  c #A85400",
"#  c gray66",
"$  c gray33",
"%  c #5454FC",
"&  c #54FC54",
"*  c #54FCFC",
"=  c #FC5454",
"-  c #FC54FC",
";  c #FCFC54",
":  c gray99",
">  c #ECECEC",
",  c gainsboro",
"<  c #D0D0D0",
"1  c #C0C0C0",
"2  c #B4B4B4",
"3  c gray66",
"4  c #989898",
"5  c gray55",
"6  c #7C7C7C",
"7  c gray44",
"8  c #646464",
"9  c gray33",
"0  c #484848",
"q  c gray22",
"w  c #2C2C2C",
"e  c #202020",
"r  c #FC0000",
"t  c #EC0000",
"y  c #E00000",
"u  c #D40000",
"i  c #C80000",
"p  c #BC0000",
"a  c #B00000",
"s  c #A40000",
"d  c #980000",
"f  c #880000",
"g  c #7C0000",
"h  c #700000",
"j  c #640000",
"k  c #580000",
"l  c #4C0000",
"z  c #400000",
"x  c #FCD8D8",
"c  c #FCB8B8",
"v  c #FC9C9C",
"b  c #FC7C7C",
"n  c #FC5C5C",
"m  c #FC4040",
"M  c #FC2020",
"N  c #FC0000",
"B  c #FCA85C",
"V  c #FC9840",
"C  c #FC8820",
"Z  c #FC7800",
"A  c #E46C00",
"S  c #CC6000",
"D  c #B45400",
"F  c #9C4C00",
"G  c #FCFCD8",
"H  c #FCFCB8",
"J  c #FCFC9C",
"K  c #FCFC7C",
"L  c #FCF85C",
"P  c #FCF440",
"I  c #FCF420",
"U  c #FCF400",
"Y  c #E4D800",
"T  c #CCC400",
"R  c #B4AC00",
"E  c #9C9C00",
"W  c #848400",
"Q  c #706C00",
"!  c #585400",
"~  c #404000",
"^  c #D0FC5C",
"/  c #C4FC40",
"(  c #B4FC20",
")  c #A0FC00",
"_  c #90E400",
"`  c #80CC00",
"'  c #74B400",
"]  c #609C00",
"[  c #D8FCD8",
"{  c #BCFCB8",
"}  c #9CFC9C",
"|  c #80FC7C",
" . c #60FC5C",
".. c #40FC40",
"X. c #20FC20",
"o. c #00FC00",
"O. c #00FC00",
"+. c #00EC00",
"@. c #00E000",
"#. c #00D400",
"$. c #04C800",
"%. c #04BC00",
"&. c #04B000",
"*. c #04A400",
"=. c #049800",
"-. c #048800",
";. c #047C00",
":. c #047000",
">. c #046400",
",. c #045800",
"<. c #044C00",
"1. c #044000",
"2. c #D8FCFC",
"3. c #B8FCFC",
"4. c #9CFCFC",
"5. c #7CFCF8",
"6. c #5CFCFC",
"7. c #40FCFC",
"8. c #20FCFC",
"9. c #00FCFC",
"0. c #00E4E4",
"q. c #00CCCC",
"w. c #00B4B4",
"e. c #009C9C",
"r. c #008484",
"t. c #007070",
"y. c #005858",
"u. c #004040",
"i. c #5CBCFC",
"p. c #40B0FC",
"a. c #20A8FC",
"s. c #009CFC",
"d. c #008CE4",
"f. c #007CCC",
"g. c #006CB4",
"h. c #005C9C",
"j. c #D8D8FC",
"k. c #B8BCFC",
"l. c #9C9CFC",
"z. c #7C80FC",
"x. c #5C60FC",
"c. c #4040FC",
"v. c #2024FC",
"b. c #0004FC",
"n. c #0000FC",
"m. c #0000EC",
"M. c #0000E0",
"N. c #0000D4",
"B. c #0000C8",
"V. c #0000BC",
"C. c #0000B0",
"Z. c #0000A4",
"A. c #000098",
"S. c #000088",
"D. c #00007C",
"F. c #000070",
"G. c #000064",
"H. c #000058",
"J. c #00004C",
"K. c #000040",
"L. c #282828",
"P. c #FCE034",
"I. c #FCD424",
"U. c #FCCC18",
"Y. c #FCC008",
"T. c #FCB400",
"R. c #B420FC",
"E. c #A800FC",
"W. c #9800E4",
"Q. c #8000CC",
"!. c #7400B4",
"~. c #60009C",
"^. c #500084",
"/. c #440070",
"(. c #340058",
"). c #280040",
"_. c #FCD8FC",
"`. c #FCB8FC",
"'. c #FC9CFC",
"]. c #FC7CFC",
"[. c #FC5CFC",
"{. c #FC40FC",
"}. c #FC20FC",
"|. c #FC00FC",
" X c #E000E4",
".X c #C800CC",
"XX c #B400B4",
"oX c #9C009C",
"OX c #840084",
"+X c #6C0070",
"@X c #580058",
"#X c #400040",
"$X c #FCE8DC",
"%X c #FCE0D0",
"&X c #FCD8C4",
"*X c #FCD4BC",
"=X c #FCCCB0",
"-X c #FCC4A4",
";X c #FCBC9C",
":X c #FCB890",
">X c #FCB080",
",X c #FCA470",
"<X c #FC9C60",
"1X c #F0945C",
"2X c #E88C58",
"3X c #DC8854",
"4X c #D08050",
"5X c #C87C4C",
"6X c #BC7848",
"7X c #B47044",
"8X c #A86840",
"9X c #A0643C",
"0X c #9C6038",
"qX c #905C34",
"wX c #885830",
"eX c #80502C",
"rX c #744C28",
"tX c #6C4824",
"yX c #5C4020",
"uX c #543C1C",
"iX c #483818",
"pX c #403018",
"aX c #382C14",
"sX c #28200C",
"dX c #600064",
"fX c #006464",
"gX c #006060",
"hX c #00001C",
"jX c #00002C",
"kX c #302410",
"lX c #480048",
"zX c #500050",
"xX c #000034",
"cX c gray11",
"vX c #4C4C4C",
"bX c gray36",
"nX c gray25",
"mX c gray19",
"MX c #343434",
"NX c #D8F4F4",
"BX c #B8E8E8",
"VX c #9CDCDC",
"CX c #74C8C8",
"ZX c #48C0C0",
"AX c #20B4B4",
"SX c #20B0B0",
"DX c #00A4A4",
"FX c #009898",
"GX c #008C8C",
"HX c #008484",
"JX c #007C7C",
"KX c #007878",
"LX c #007474",
"PX c #007070",
"IX c #006C6C",
"UX c #980088",
/* pixels */
"8X7XqXyXq $ 6 4 4 4 5 6 7 7 6 6 5 6 7 nXnX$ 7 $ 7 7 iX7 8XrX7 rXqXqXyXq nX$ 6 5 6 7 $ $ 7 5 5 6 7 7 $ nXnXq yXq nXnXq L.qX5XV 5X",
"8X8XqXyXnX$ 5 5 4 7 7 rX$ 6 5 4 # 5 6 $ nX$ 7 7 $ nXiX7 8XqXqXqX8XqXyXq q $ 7 6 7 $ $ 7 5 5 5 6 7 $ nXnXq uXnX$ 7 nXq L.8X5X,X0X",
"8X8XqXyX$ 6 6 4 5 5 eX$ $ 7 4 # 5 5 rXq yXnX7 $ $ nXiX7 8X8XqXqX8XqXyXuXq nX7 7 7 7 6 5 4 4 5 6 7 $ $ q nXq $ 7 6 $ nXL.qX8X0X5X",
"5X8XrXrX$ 6 5 5 5 7 6 7 6 6 4 # # bXnXuXq nXnXnXq iXiX7 5X8XqX8X8XqXrXyXq nX$ 7 7 7 6 5 4 4 5 6 7 7 nXyXq yX7 6 6 $ q L.eX8X8X8X",
",X8XqXrX7 7 6 4 5 5 4 4 5 5 # 2 6 6 uXiXyXq yXq q L.iX7 8X8XqX8X8X8XrXq q nX7 7 6 7 6 5 5 5 5 6 6 $ nXmXuX$ 5 5 6 $ q L.qX8X5X8X",
"8X8XqXrX7 7 7 7 7 6 4 4 4 5 4 4 4 rXnXuXq yXnXq q uXiX7 8X8XqXqXqXqXrXyXyX$ 6 5 6 7 $ 7 $ 7 7 7 $ nXmXuX$ 5 # 4 5 7 $ L.eX8X8X8X",
"5X8XqXyX7 $ $ $ $ 7 5 5 7 6 6 4 6 6 $ q nXnXuXnXq q iX7 8X8XqXqX8XqXyXyXnX$ 6 7 7 nXyX$ nXnX$ $ $ nXyX$ 5 # # # 4 6 7 L.qX8X8X8X",
"5X8XqXyXnXnXyXyX$ 7 7 7 7 $ 7 5 4 5 $ nXnXyXnXq q nXiX7 8X8XqXqXqXqXyXq nX$ 7 7 nXyXnX$ nXnXnXeX$ yX$ 6 # 2 # 5 5 7 $ L.qX8X8X8X",
"5X8XqXyXq q nX$ 7 7 6 7 $ $ 7 4 4 5 7 $ 7 7 7 $ nXnXiX7 8X8XqXqX8XqXyXnXnX$ 7 nXyXnX7 7 7 $ 7 7 7 $ 7 5 # # 4 5 6 $ q L.qX8X8X5X",
",X5XqXyXL.nX$ 7 7 6 6 6 7 6 4 # 4 7 7 rX$ 7 7 nXq nXiX7 5X8X8XqX8XqXyXyXnX$ 7 $ nX$ 7 6 7 6 6 5 6 7 6 4 # # 5 7 7 nXq L.qX8X8X5X",
"5X8XqXyXnX$ 7 6 6 5 5 5 5 4 4 # 4 6 7 bX$ bX7 $ yXL.iX7 8X8X8X8X8XqXyXq nX$ 7 nXyXnX6 6 6 5 4 4 6 6 6 4 4 5 6 $ 7 $ nXL.qX5X,X5X",
"5X8XqXvX$ $ 7 6 6 5 4 5 5 4 # 5 5 7 bX7 bX$ 7 nXq L.L.7 5X8X8X8X8XqXvXnXnX$ nXyXq eX7 7 7 5 5 4 5 5 5 4 5 6 $ $ bXnXnXe qX8X5X5X",
"5X8XqX$ 7 6 6 6 5 4 4 5 6 5 5 5 7 nX$ bX7 7 7 nXq L.iX7 5X8XqX8X8XqX$ nXq nX$ nXnXnX$ $ 7 6 6 5 5 4 4 4 5 $ nXq $ nXnXL.qX5X,X5X",
"5X8XqX$ 7 $ 7 6 5 5 5 7 7 7 7 7 $ nX$ 7 7 6 $ nXmXiXe 6 qX8XqX8X8XqX$ nXnXnXnX$ nX$ $ $ 7 7 7 7 5 # 4 6 $ nXmXyX$ $ q cXqX8X5X5X",
"5X8XrX$ $ $ $ 6 5 5 6 7 yXnXyXnX$ $ $ 7 7 bX$ nXq L.uX8X5X8X8X8X8XqX$ nXnXnX$ $ 7 7 7 $ 7 $ 7 6 5 5 6 $ nXq nX$ 6 $ nXiXqX8X5X5X",
"8XqXrXyXnXnX$ 6 5 5 6 $ mXq q $ 7 6 7 7 $ $ $ nXq iXiX8X5X5X8X5X8XqXyXq nXnXnX7 7 6 $ $ $ qX6 5 5 6 $ nXnX$ 7 6 5 7 $ L.qX8X8X8X",
"8X8XqXuXq q $ 7 5 5 6 nXuXq $ 7 7 6 6 7 $ $ 7 $ q L.iX8X,X5X5X5X8XqXyXuXnXnXnX$ 6 6 7 nX$ 7 5 4 5 6 $ $ 7 7 5 5 4 7 $ L.eX8X8X8X",
"8X8XqXyXq q nX7 5 5 $ yXq $ 7 6 6 6 6 7 $ 7 7 nXnXq iX8X5X,X5X5X8XqXyX$ $ $ $ bX7 6 7 $ nX7 5 4 5 6 7 6 7 6 6 6 6 7 nXL.$ 6 8X8X",
"8X8XqXyXiXq nX7 5 6 $ nXeX7 6 7 6 6 6 $ eX$ $ $ nXnXiX8X,X5X5X5X8XqXyXyX$ 7 7 7 6 7 7 $ $ 7 5 4 6 7 7 7 6 7 7 $ eXnXnXL.qX8X8X8X",
"8X8XqXyXe q $ 6 5 6 7 7 7 6 $ qX7 6 7 $ nXyXnX$ nXnXiX8X,X,X5X5X8XqXyXnX7 6 6 6 6 7 7 7 7 6 5 5 6 7 7 7 $ $ nXnXnXnXq L.$ 8X8X8X",
"8XqXrXuXL.q $ 5 4 4 6 7 6 7 $ nX$ $ $ q yXq $ $ $ $ iX8X5X5X5X,X5XqXuXyX7 5 5 5 6 7 7 6 6 5 5 5 6 $ 7 $ $ nX$ q yXnX$ L.eX6 qX8X",
"8XqXqXuXL.nX6 # # 4 6 7 7 7 nXyXnX$ q uXq $ $ $ 7 7 iX8X,X,X5X5X8XqXuXvX7 5 4 5 6 6 6 5 5 4 5 6 $ $ $ eX$ $ nXnX$ $ nXL.$ 8X8X8X",
"qXrXqXyXq $ 6 # # 6 $ $ 7 7 $ $ 7 nXyXq $ $ $ $ $ 7 iX8X,X5X,X5X8XqXyXyX7 6 5 5 6 7 6 5 5 5 6 $ nX$ $ $ $ $ $ $ $ nXnXL.rXqX8X8X",
"qX8XqXrXq $ 6 4 5 $ q yX$ 7 7 7 7 7 nXnX$ 7 $ nX$ 7 iX8X5X,X5X5X8XqXrXyXbX6 5 5 6 7 7 7 6 6 $ nXq $ $ eX$ 7 $ 7 7 $ q L.$ 8X8X8X",
"8XqXqXyXnX$ 6 6 7 nXq nX7 7 7 7 6 $ nXnX7 $ 7 7 $ $ iX8X,X5X8X5X8XqXyXnX$ 7 5 6 7 $ $ $ $ $ nXq nXnX$ nX$ 7 7 7 7 $ nXL.eX7 8XqX",
"8X8X8XyXnX7 7 6 7 nXq $ 7 7 7 7 $ yXq nXnX$ $ $ $ $ iX8X5X5X5X8X8XqXyXyX$ 6 6 6 bX$ $ $ $ $ q yXq yXnX$ 7 7 $ $ $ nXq L.$ 8XqXqX",
"8X8XqXnX7 7 6 6 7 $ $ 7 6 7 7 $ yXq uXmXnXnX$ $ $ $ uX8X5X5X5X8X8XqX$ nX$ 7 6 7 $ $ 7 7 6 7 $ q nXq $ nX7 $ eXnX$ vXq iXrXqXqX8X",
"8X8XqX$ 6 6 6 5 6 6 7 7 7 7 $ nXq uXiXuXq nXnX$ $ $ iX8X5X5X5X8X8XqX$ $ $ 7 7 $ nX$ 6 5 5 6 7 $ nXyXnX$ nXyXq uXnXnXq L.$ qX8X8X",
"8X8XqX$ 7 6 5 5 5 6 7 $ $ nXnXq yXq uXmXnXq $ nXnXnXiX8XV ,X5X8X8XqX$ bX$ 7 7 nX$ 7 5 # # 5 7 nX$ nX$ nXnXiXuXmXnXnXnXL.rX6 8X8X",
"qXqXqXyX$ 7 7 6 6 6 $ $ nXnXnX$ nXyXiXuXmXyXnXnXnXuXiX8XV V 5X8X7XqXyXyX7 7 $ yX$ 6 4 # 5 7 nXnXnX$ nXnXmXuXnX$ 7 $ nXL.$ qXqX6 ",
"7 rXqXyXnXnX$ 7 7 7 $ $ $ vXnX$ 7 nXuXiXyXq nX$ nXnXiX8X5X8X5X0X8XqXyXnX$ 7 $ nX7 5 4 4 6 nXq mX$ $ $ nXnXnX7 7 6 $ $ L.nX7 7 7 ",
"qX$ qXyXq nX$ 7 $ $ vX$ $ $ $ 7 bX$ mXuXq $ $ $ $ $ iX8X8X5X8X8X8XqXyXyX$ $ $ $ 7 5 5 6 nXuXiXyXnX$ $ $ $ 7 6 5 5 7 nXL.$ $ 7 7 ",
"qXqXrXuXnXnXnX$ 7 $ $ $ 7 bX7 7 7 $ nXnX$ 7 6 7 7 7 iX8X,X8X8XqX8XqXyXnXnX$ $ $ 6 5 6 $ q iXyX$ 7 $ 7 7 6 6 5 5 5 $ q L.yXqX8X7 ",
"qXeXqXnXq vXnX7 nXyXnX$ bX7 bX$ nX$ $ $ $ 7 6 7 $ $ iX8XeX8X8XqX8XqXnXq nX$ 7 6 5 5 7 $ mXyX$ 7 $ 7 7 6 5 5 4 5 5 7 nXL.$ 6 qXqX",
"rX$ qXvXnXq nXnXyXnXnX$ 7 $ $ nXnXnX7 $ 7 7 6 7 $ nXiX8X8XrXrXqXqXqXvXnXyX$ 6 6 5 6 7 nXnXnX7 7 7 7 7 5 4 4 4 5 5 7 $ L.rXqXrX6 ",
"nXqXqXyXq q q nXq yXq $ nX$ q yXq nX$ nX$ qX7 $ nXq iX8X8XqXqXqXqXqXyXyXyX$ 7 6 6 6 $ nX$ 7 7 7 7 7 7 5 5 5 5 5 5 7 $ L.$ 7 7 $ ",
"$ 7 qXyXnXq q vX$ nX$ $ $ q yXq yXq nXq yX7 6 $ nXL.iX8X7 rXqX8X8XqXyXnXnX7 7 $ $ $ $ q $ $ 7 7 7 7 6 6 6 6 6 6 6 7 $ L.$ 7 7 nX",
"$ qXqXyXvXnXnX$ bX7 $ $ nXyX$ $ q nXnX$ 7 6 7 $ q iXiX8X5XrXqX8XqXqXyXyXyX$ 7 $ $ eXnXyXq $ 7 6 7 6 6 6 6 6 5 5 5 7 $ L.$ 7 7 nX",
"$ 7 8XyXnXq nX7 6 7 7 nXnXq 7 nXyXq eX7 7 6 $ q q L.iX7 8XrX8XqX8XqXyXyXnX$ 7 7 7 $ nXq nX7 6 5 6 6 6 6 6 5 4 4 4 7 nXL.$ 7 $ rX",
"7 8X8XyXL.q nX7 7 7 $ nXq nX$ nXmXyX7 6 7 nXq q mXiXiX7 8XrX8XqX8XqXyXq nX$ 7 6 6 6 $ $ 7 5 4 4 5 5 6 6 6 5 4 # 4 7 q L.rXqX8XqX",
"8X8XqXyXiXmXnX$ 7 $ nXq yXnXnXmXeX7 5 6 $ L.iXiXiXL.iX7 8XqX8X8XqXqXyXyXq nXeX7 6 6 7 7 6 4 # 4 4 5 6 7 7 6 6 5 5 $ iXL.$ 8X8XqX",
"8X8XqXyXe iXyX$ $ $ nXyXnX$ nXrX$ 5 6 6 $ iXiXmXmXq iX7 8XqX8X8X8XqXyXq q yXnX7 6 6 7 $ 7 5 5 5 5 6 7 7 7 $ 7 6 7 q e L.qX8X8X8X",
"5X8XqXyXL.mXvX$ $ $ $ $ eX7 6 $ $ $ 7 $ nXL.mXq q q uX8X8X8X8X8X8XqXyXyXq nXyX$ 6 6 7 $ yX7 6 6 6 7 7 7 $ $ $ $ nXmXe iXeX8X8X8X",
"8X8XqXyXL.q nX$ 7 7 7 7 7 6 7 eXnXnX$ nXq q mXq q nXuX8X8X8X8X8X8XqXyXq nXnXnX7 7 7 7 yX$ 7 7 7 7 7 7 7 $ nXnX$ q mXL.iXqX8X8X8X",
"8X8X8X$ q q nX$ 7 7 7 6 6 6 $ $ nXnX$ nXnXq q q q q uX7 8X8X8X8XqXqX$ nXnX$ $ 7 7 7 7 7 7 7 7 7 7 6 7 $ $ nXyXq nXq q iXeX6 8X8X",
"8X8X8X$ nXnX$ $ $ 7 6 5 6 $ $ nX$ nXnX$ nXnXq q q uXuX7 8X8X8X7 8X8X$ $ $ $ bX7 7 7 6 6 6 7 7 7 6 7 $ yXnXnXmXnXq nXq iXnX8X8X8X",
"8X8X8X$ nX$ $ $ $ 7 6 6 7 $ nXq nX$ $ $ $ $ nXq mXq uX7 8X8X8X8X8X8XnXnX$ 7 7 7 $ 7 6 6 6 6 6 7 7 7 $ nXyXnXnX$ $ nXq iX$ $ 8X8X",
"8X8X8XnXvX$ bX7 7 6 6 7 $ nXq q nX$ $ $ 7 $ $ $ q nXuX7 8X8X8X8X8X8Xq q $ 6 5 7 7 6 6 6 5 5 4 5 5 7 7 $ $ $ $ $ $ nXL.iX$ vXbX8X",
"8X8X8XnXnX7 7 6 5 6 7 $ nXnXnXnX$ 7 7 7 7 7 7 $ $ 7 uX7 8X8X8X8X8X8XuXq $ 6 7 $ 7 7 6 5 5 4 < 4 5 5 5 6 6 7 6 7 $ nXuXiX7 7 7 8X",
"8X8XeXyXnX7 6 5 5 5 $ nXnXnXnX$ 7 6 6 7 $ $ nXnX$ $ uX7 8X8X8X8X8X8XyXnX$ 7 7 7 7 6 6 5 5 # # 4 4 # # 4 4 5 5 6 6 $ q iX$ qX8X8X",
"8X8XqXrX$ 7 5 5 4 6 $ nXnX$ $ $ 6 6 6 7 $ q yXq q q uX7 8X8X8X8X8XqXrXnX$ 7 $ $ 7 7 6 6 6 6 6 6 5 2 # 1 # # 4 5 6 $ uXiXrX8X8X8X",
"8X8XqXyX$ 7 6 4 5 6 $ $ $ $ 7 6 7 6 6 $ $ nXmXq mXiXuX8X5X8X8X5X8XqXyXyX$ 7 $ $ 7 6 6 6 bXnXq yX6 4 # 2 2 # 4 5 5 7 q iXqX8X8X8X",
"8X8XqX$ $ $ 6 5 6 7 $ $ 7 6 6 6 7 6 6 7 $ nXyXmXiXL.iX8X8X8X8X8X8XqX$ nX$ $ $ $ 7 6 6 6 7 nXuXnX7 5 4 2 2 # 5 5 6 $ $ L.eX8X8X8X",
"8XqXqX$ nX7 7 7 7 eX7 6 5 5 6 6 6 5 5 5 7 $ nXnXq iXuX7 8X8XqX8X8XqX$ $ $ 7 $ $ 7 7 6 6 $ yXq $ 7 5 4 4 # 4 4 6 6 7 nXiXeX6 8X8X",
"8XqXqX$ $ $ $ 7 $ $ 6 5 4 5 6 5 5 # # 4 6 bX7 nXq L.iX7 8XqXqX7 8X8X$ $ $ nX$ $ 7 7 7 bX$ nXeX7 5 4 5 4 4 4 5 6 6 $ nXL.$ qX8X8X",
"qX8XqX$ nXnX$ $ $ 7 7 6 4 5 6 5 # 2 # 4 7 $ bX$ nXiXuX7 7 $ rX7 7 8X$ $ nX$ nX7 6 6 6 $ vXnX7 5 5 5 5 5 5 5 6 6 6 $ q iXrX8X8X8X",
"8XqXqXyXnX$ $ $ qXeX7 5 4 5 5 4 # 2 4 6 yXnX$ $ nXq uX7 7 $ $ 7 qXqXyXyX$ $ 7 6 5 5 6 $ nX$ 6 5 5 5 5 5 6 6 7 7 6 nXL.iXqX8X8XqX",
"8X8XqXyX$ $ $ qX$ qX6 5 4 5 4 4 # 4 5 $ $ $ 7 $ nXnXuX7 7 $ $ 7 7 qXyXnX$ 7 7 6 5 5 6 $ nX7 6 5 5 5 6 7 7 7 7 7 $ q e iXqX8X8XqX",
"8XqXqXyXnX$ 7 7 7 6 5 5 4 4 4 4 4 5 7 $ rX$ 7 7 $ nXrX7 7 $ $ 7 qXqXyXyX$ bX7 6 5 6 7 nX$ 7 6 6 6 6 6 $ 7 7 7 $ nXmXe uXeX8X8XrX",
"8XqXqXq 7 $ $ 6 7 6 5 4 4 5 4 4 4 5 7 nXnX7 7 $ nXuXyX7 8XrX7 qX7 qXq q $ 7 7 7 7 7 $ nX$ 7 7 7 7 7 7 $ $ 7 $ $ q mXL.uXqXqXrXqX",
"8X8XrXq $ $ 7 7 7 6 6 5 5 5 4 4 5 6 $ q yXnX7 $ nXL.iX7 8XqXyX8XqXqXq q $ 7 6 7 $ nX$ $ 7 7 7 7 7 7 7 7 7 $ eXnXq q nXL.rX8XqX8X",
"8XqXqXq $ $ $ 6 6 6 5 5 5 5 5 5 6 7 q q mX$ $ $ nXq iX7 8XqXnX8XqXqXq nX$ $ 7 qXnXnXnX7 7 7 7 7 7 7 7 6 $ eXnXyXq q nXL.qX8XqX8X",
"8XqXrXnXyX$ 7 6 5 5 5 4 5 5 6 7 $ q q mXnXnX$ $ $ nXyX7 7 $ nXqX7 qXnXq nX$ 7 7 rX$ rX$ 7 7 6 7 7 7 6 7 7 $ yXq nXq q uXqX8X8X8X",
"0X8XqXyXnX$ 7 5 4 4 4 4 5 6 7 7 7 $ nX$ nX$ $ 7 $ 7 q 7 7 $ nX7 qXqXyXyXnX$ 7 5 7 7 $ $ 7 6 6 6 7 6 7 7 nXyXq nXq mXL.iXqX8X8X5X"
};