/* XPM */
static char *sfnhh_nvsr3[] = {
/* columns rows colors chars-per-pixel */
"64 64 256 2 ",
"   c black",
".  c #0000A8",
"X  c #00A800",
"o  c #00A8A8",
"O  c #A80000",
"+  c #A800A8",
"@  c #A85400",
"#  c gray66",
"$  c gray33",
"%  c #5454FC",
"&  c #54FC54",
"*  c #54FCFC",
"=  c #FC5454",
"-  c #FC54FC",
";  c #FCFC54",
":  c gray99",
">  c #ECECEC",
",  c gainsboro",
"<  c #D0D0D0",
"1  c #C0C0C0",
"2  c #B4B4B4",
"3  c gray66",
"4  c #989898",
"5  c gray55",
"6  c #7C7C7C",
"7  c gray44",
"8  c #646464",
"9  c gray33",
"0  c #484848",
"q  c gray22",
"w  c #2C2C2C",
"e  c #202020",
"r  c #FC0000",
"t  c #EC0000",
"y  c #E00000",
"u  c #D40000",
"i  c #C80000",
"p  c #BC0000",
"a  c #B00000",
"s  c #A40000",
"d  c #980000",
"f  c #880000",
"g  c #7C0000",
"h  c #700000",
"j  c #640000",
"k  c #580000",
"l  c #4C0000",
"z  c #400000",
"x  c #FCD8D8",
"c  c #FCB8B8",
"v  c #FC9C9C",
"b  c #FC7C7C",
"n  c #FC5C5C",
"m  c #FC4040",
"M  c #FC2020",
"N  c #FC0000",
"B  c #FCA85C",
"V  c #FC9840",
"C  c #FC8820",
"Z  c #FC7800",
"A  c #E46C00",
"S  c #CC6000",
"D  c #B45400",
"F  c #9C4C00",
"G  c #FCFCD8",
"H  c #FCFCB8",
"J  c #FCFC9C",
"K  c #FCFC7C",
"L  c #FCF85C",
"P  c #FCF440",
"I  c #FCF420",
"U  c #FCF400",
"Y  c #E4D800",
"T  c #CCC400",
"R  c #B4AC00",
"E  c #9C9C00",
"W  c #848400",
"Q  c #706C00",
"!  c #585400",
"~  c #404000",
"^  c #D0FC5C",
"/  c #C4FC40",
"(  c #B4FC20",
")  c #A0FC00",
"_  c #90E400",
"`  c #80CC00",
"'  c #74B400",
"]  c #609C00",
"[  c #D8FCD8",
"{  c #BCFCB8",
"}  c #9CFC9C",
"|  c #80FC7C",
" . c #60FC5C",
".. c #40FC40",
"X. c #20FC20",
"o. c #00FC00",
"O. c #00FC00",
"+. c #00EC00",
"@. c #00E000",
"#. c #00D400",
"$. c #04C800",
"%. c #04BC00",
"&. c #04B000",
"*. c #04A400",
"=. c #049800",
"-. c #048800",
";. c #047C00",
":. c #047000",
">. c #046400",
",. c #045800",
"<. c #044C00",
"1. c #044000",
"2. c #D8FCFC",
"3. c #B8FCFC",
"4. c #9CFCFC",
"5. c #7CFCF8",
"6. c #5CFCFC",
"7. c #40FCFC",
"8. c #20FCFC",
"9. c #00FCFC",
"0. c #00E4E4",
"q. c #00CCCC",
"w. c #00B4B4",
"e. c #009C9C",
"r. c #008484",
"t. c #007070",
"y. c #005858",
"u. c #004040",
"i. c #5CBCFC",
"p. c #40B0FC",
"a. c #20A8FC",
"s. c #009CFC",
"d. c #008CE4",
"f. c #007CCC",
"g. c #006CB4",
"h. c #005C9C",
"j. c #D8D8FC",
"k. c #B8BCFC",
"l. c #9C9CFC",
"z. c #7C80FC",
"x. c #5C60FC",
"c. c #4040FC",
"v. c #2024FC",
"b. c #0004FC",
"n. c #0000FC",
"m. c #0000EC",
"M. c #0000E0",
"N. c #0000D4",
"B. c #0000C8",
"V. c #0000BC",
"C. c #0000B0",
"Z. c #0000A4",
"A. c #000098",
"S. c #000088",
"D. c #00007C",
"F. c #000070",
"G. c #000064",
"H. c #000058",
"J. c #00004C",
"K. c #000040",
"L. c #282828",
"P. c #FCE034",
"I. c #FCD424",
"U. c #FCCC18",
"Y. c #FCC008",
"T. c #FCB400",
"R. c #B420FC",
"E. c #A800FC",
"W. c #9800E4",
"Q. c #8000CC",
"!. c #7400B4",
"~. c #60009C",
"^. c #500084",
"/. c #440070",
"(. c #340058",
"). c #280040",
"_. c #FCD8FC",
"`. c #FCB8FC",
"'. c #FC9CFC",
"]. c #FC7CFC",
"[. c #FC5CFC",
"{. c #FC40FC",
"}. c #FC20FC",
"|. c #FC00FC",
" X c #E000E4",
".X c #C800CC",
"XX c #B400B4",
"oX c #9C009C",
"OX c #840084",
"+X c #6C0070",
"@X c #580058",
"#X c #400040",
"$X c #FCE8DC",
"%X c #FCE0D0",
"&X c #FCD8C4",
"*X c #FCD4BC",
"=X c #FCCCB0",
"-X c #FCC4A4",
";X c #FCBC9C",
":X c #FCB890",
">X c #FCB080",
",X c #FCA470",
"<X c #FC9C60",
"1X c #F0945C",
"2X c #E88C58",
"3X c #DC8854",
"4X c #D08050",
"5X c #C87C4C",
"6X c #BC7848",
"7X c #B47044",
"8X c #A86840",
"9X c #A0643C",
"0X c #9C6038",
"qX c #905C34",
"wX c #885830",
"eX c #80502C",
"rX c #744C28",
"tX c #6C4824",
"yX c #5C4020",
"uX c #543C1C",
"iX c #483818",
"pX c #403018",
"aX c #382C14",
"sX c #28200C",
"dX c #600064",
"fX c #006464",
"gX c #006060",
"hX c #00001C",
"jX c #00002C",
"kX c #302410",
"lX c #480048",
"zX c #500050",
"xX c #000034",
"cX c gray11",
"vX c #4C4C4C",
"bX c gray36",
"nX c gray25",
"mX c gray19",
"MX c #343434",
"NX c #D8F4F4",
"BX c #B8E8E8",
"VX c #9CDCDC",
"CX c #74C8C8",
"ZX c #48C0C0",
"AX c #20B4B4",
"SX c #20B0B0",
"DX c #00A4A4",
"FX c #009898",
"GX c #008C8C",
"HX c #008484",
"JX c #007C7C",
"KX c #007878",
"LX c #007474",
"PX c #007070",
"IX c #006C6C",
"UX c #980088",
/* pixels */
"L.L.e e e e e e e e e e e e e e e e e e e e L.L.e e e e e e e L.L.L.e e e e e e e e e e e e e e e e e e e e L.L.e e e e e e e L.",
"e cXe e e e e e e e e e e e e e e mXmXe e e mXmXmXe e e e e e L.e cXe e e e e e e e e e e e e e e mXmXe e e mXmXmXe e e e e e L.",
"cXcXq q q q mXmXmXmXq q q q q q q nXvXvXvXvXq q q q nXvXq mXq q cXcXq q q q mXmXmXmXq q q q q q q nXvXvXvXvXq q q q nXvXq mXq q ",
"cXcXq q q q q q q q q q q q q q mXq nXvXvXq q q q q $ vXvXq vXvXcXcXq q q q q q q q q q q q q q mXq nXvXvXq q q q q $ vXvXq vXvX",
"cXcXq q q q mXmXmXq q q q q q mXmXq q q q mXq q q q nXq q q $ $ cXcXq q q q mXmXmXq q q q q q mXmXq q q q mXq q q q nXq q q $ $ ",
"cXcXq q q mXmXmXmXmXq q q q mXL.mXq q L.L.e L.mXmXmXq q q mXnXq cXcXq q q mXmXmXmXmXq q q q mXL.mXq q L.L.e L.mXmXmXq q q mXnXq ",
"cXcXmXmXq q q mXmXmXq q mXL.mXmXmXmXmXmXmXL.L.mXL.L.mXmXmXmXbX7 cXcXmXmXq q q mXmXmXq q mXL.mXmXmXmXmXmXmXL.L.mXL.L.mXmXmXmXbX7 ",
"cXcXmXmXmXq q mXL.mXL.L.mXmXmXmXmXmXL.L.L.L.mXmXL.L.mXmXL.mXnXnXcXcXmXmXmXq q mXL.mXL.L.mXmXmXmXmXmXL.L.L.L.mXmXL.L.mXmXL.mXnXnX",
"cXcXq q q L.L.L.L.L.mXmXq q mXq q mXmXL.L.mXmXmXL.L.mXmXmXmXnXq cXcXq q q L.L.L.L.L.mXmXq q mXq q mXmXL.L.mXmXmXL.L.mXmXmXmXnXq ",
"cXcXq mXmXL.L.mXmXmXmXmXq q q q q mXmXL.L.L.L.L.L.mXmXmXL.mXq q cXcXq mXmXL.L.mXmXmXmXmXq q q q q mXmXL.L.L.L.L.L.mXmXmXL.mXq q ",
"cXcXq q mXmXmXq q q q q mXq mXq mXq q mXmXL.e e mXmXq mXmXmXnXvXcXcXq q mXmXmXq q q q q mXq mXq mXq q mXmXL.e e mXmXq mXmXmXnXvX",
"cXcXq q q q q q q $ q q mXmXq mXq q q q q q L.e L.mXmXmXmXmX$ vXcXcXq q q q q q q $ q q mXmXq mXq q q q q q L.e L.mXmXmXmXmX$ vX",
"cXcXq q q q q q q q q q q mXmXq mXmXmXq q q mXL.L.L.L.mXmXmX$ q cXcXq q q q q q q q q q q mXmXq mXmXmXq q q mXL.L.L.L.mXmXmX$ q ",
"cXcXq q q q q q q q q q q mXmXmXmXq q q q q q L.L.mXmXmXmXmXnXq cXcXq q q q q q q q q q q mXmXmXmXq q q q q q L.L.mXmXmXmXmXnXq ",
"cXcXq q q q q mXq q q q mXmXq mXmXmXq q q q q L.L.L.mXmXmXq nXq cXcXq q q q q mXq q q q mXmXq mXmXmXq q q q q L.L.L.mXmXmXq nXq ",
"e L.q q q q q q mXmXmXmXq mXmXmXq q q q q q mXq mXL.L.L.L.mXnXq e L.q q q q q q mXmXmXmXq mXmXmXq q q q q q mXq mXL.L.L.L.mXnXq ",
"e L.$ q q q q q mXmXmXmXq mXmXmXmXq q q q q q q q L.L.L.L.L.nXq e L.$ q q q q q mXmXmXmXq mXmXmXmXq q q q q q q q L.L.L.L.L.nXq ",
"cXL.vXq mXmXq mXmXmXL.mXmXmXmXmXmXq q q q q q q q mXmXmXmXL.nXq cXL.vXq mXmXq mXmXmXL.mXmXmXmXmXmXq q q q q q q q mXmXmXmXL.nXq ",
"cXcXq mXmXmXmXmXL.mXL.L.mXL.L.mXmXq mXL.L.mXmXL.mXq mXmXq q q q cXcXq mXmXmXmXmXL.mXL.L.mXL.L.mXmXq mXL.L.mXmXL.mXq mXmXq q q q ",
"cXcXmXmXmXmXL.L.mXmXmXmXmXmXmXmXmXL.mXmXmXmXmXq mXmXq q q mXq mXcXcXmXmXmXmXL.L.mXmXmXmXmXmXmXmXmXL.mXmXmXmXmXq mXmXq q q mXq mX",
"cXcXmXmXmXL.mXq L.mXmXL.mXmXmXmXL.L.L.mXmXmXmXmXmXq q mXq q q q cXcXmXmXmXL.mXq L.mXmXL.mXmXmXmXL.L.L.mXmXmXmXmXmXq q mXq q q q ",
"cXcXL.L.L.L.mXmXL.mXmXmXmXmXmXmXmXL.L.mXmXmXmXq q q mXmXq q q L.cXcXL.L.L.L.mXmXL.mXmXmXmXmXmXmXmXL.L.mXmXmXmXq q q mXmXq q q L.",
"cXcXq mXL.mXmXL.mXmXmXmXmXmXmXmXmXmXL.mXmXmXmXq q q q mXq q q q cXcXq mXL.mXmXL.mXmXmXmXmXmXmXmXmXmXL.mXmXmXmXq q q q mXq q q q ",
"cXe vXq mXL.L.mXmXmXmXmXq mXmXL.mXq mXmXmXq q q q q q q q q $ vXcXe vXq mXL.L.mXmXmXmXmXq mXmXL.mXq mXmXmXq q q q q q q q q $ vX",
"e e q q mXmXmXq L.mXL.mXq q mXL.mXmXmXq q q q mXq mXq mXq q 7 vXe e q q mXmXmXq L.mXL.mXq q mXL.mXmXmXq q q q mXq mXq mXq q 7 vX",
"cXcXq q q mXmXmXL.mXL.mXmXL.L.e L.q $ $ $ vXq q q q q vXq q $ q cXcXq q q mXmXmXL.mXL.mXmXL.L.e L.q $ $ $ vXq q q q q vXq q $ q ",
"e L.vXq q mXmXmXq mXmXL.L.L.L.mXq $ $ $ $ vXvXq q q q $ $ q nXq e L.vXq q mXmXmXq mXmXL.L.L.L.mXq $ $ $ $ vXvXq q q q $ $ q nXq ",
"e L.vXq mXL.mXmXq mXmXq q q mXvX$ q q q q q vXq q mXmXvXvXq q mXe L.vXq mXL.mXmXq mXmXq q q mXvX$ q q q q q vXq q mXmXvXvXq q mX",
"cXe q q mXq mXq mXq q q mXq q q q q mXmXmXmXq vXq q mXmXq mXq q cXe q q mXq mXq mXq q q mXq q q q q mXmXmXmXq vXq q mXmXq mXq q ",
"cXcXmXmXq mXmXq mXmXq q q mXmXq q mXq mXmXmXq q q mXL.mXmXmXq q cXcXmXmXq mXmXq mXmXq q q mXmXq q mXq mXmXmXq q q mXL.mXmXmXq q ",
"cXcXL.mXq mXq mXmXq q q q mXmXq mXmXq mXmXmXmXmXmXmXL.L.mXmXq q cXcXL.mXq mXq mXmXq q q q mXmXq mXmXq mXmXmXmXmXmXmXL.L.mXmXq q ",
"cXcXmXmXq q mXq q mXq mXL.mXmXmXmXmXq q q mXmXq q L.L.L.L.L.q q cXcXmXmXq q mXq q mXq mXL.mXmXmXmXmXq q q mXmXq q L.L.L.L.L.q q ",
"cXcXmXq vXvXmXq q q mXL.mXmXmXq q q q q q q q mXq mXmXmXq mXmXmXcXcXmXq vXvXmXq q q mXL.mXmXmXq q q q q q q q mXq mXmXmXq mXmXmX",
"cXcXmXq q q mXmXL.mXL.L.L.mXmXmXq q mXq q mXq q q q q q vXq mXmXcXcXmXq q q mXmXL.mXL.L.L.mXmXmXq q mXq q mXq q q q q q vXq mXmX",
"cXcXmXq q q L.L.L.mXmXe L.mXmXmXL.mXmXq q mXq q q mXq q q q mXmXcXcXmXq q q L.L.L.mXmXe L.mXmXmXL.mXmXq q mXq q q mXq q q q mXmX",
"cXcXmXq vXq mXmXmXq L.e L.mXq mXL.L.mXmXmXq q q q q q q q q q mXcXcXmXq vXq mXmXmXq L.e L.mXq mXL.L.mXmXmXq q q q q q q q q q mX",
"cXcXmXmXmXq mXL.q L.L.L.mXmXmXmXmXL.mXmXmXmXmXq vXq q $ vXq q mXcXcXmXmXmXq mXL.q L.L.L.mXmXmXmXmXL.mXmXmXmXmXq vXq q $ vXq q mX",
"cXcXq q q q L.L.q mXL.mXL.L.L.L.L.mXmXmXmXmXmXq q q q vXvXq nXq cXcXq q q q L.L.q mXL.mXL.L.L.L.L.mXmXmXmXmXmXq q q q vXvXq nXq ",
"  cXL.mXmXmXL.L.mXq mXL.mXL.L.mXL.mXq mXmXq mXq q q mXq q q $ nX  cXL.mXmXmXL.L.mXq mXL.mXL.L.mXL.mXq mXmXq mXq q q mXq q q $ nX",
"  cXmXmXmXq mXmXmXmXmXL.mXL.mXmXmXq q mXmXmXmXmXq q mXq mXmX$ $   cXmXmXmXq mXmXmXmXmXL.mXL.mXmXmXq q mXmXmXmXmXq q mXq mXmX$ $ ",
"  cXq q mXmXmXq L.L.mXL.mXmXmXmXmXmXmXL.L.L.mXmXq q mXmXL.mXnXq   cXq q mXmXmXq L.L.mXL.mXmXmXmXmXmXmXL.L.L.mXmXq q mXmXL.mXnXq ",
"    mXmXq mXL.q L.L.L.L.mXmXmXmXmXmXmXmXmXmXq q mXmXmXmXmXmXnXq     mXmXq mXL.q L.L.L.L.mXmXmXmXmXmXmXmXmXmXq q mXmXmXmXmXmXnXq ",
"cXcXmXq mXmXe mXL.L.e e L.mXmXq mXmXmXmXmXq q mXL.L.mXmXmXq nXq cXcXmXq mXmXe mXL.L.e e L.mXmXq mXmXmXmXmXq q mXL.L.mXmXmXq nXq ",
"cXcXq q L.mXL.e L.L.L.e L.L.L.mXmXmXmXmXmXmXmXmXL.L.L.L.mXmXq q cXcXq q L.mXL.e L.L.L.e L.L.L.mXmXmXmXmXmXmXmXmXL.L.L.L.mXmXq q ",
"cXcXq q mXL.L.L.L.mXq mXL.L.L.e e mXmXL.L.L.L.mXmXL.L.mXmXmX$ $ cXcXq q mXL.L.L.L.mXq mXL.L.L.e e mXmXL.L.L.L.mXmXL.L.mXmXmX$ $ ",
"cXcXmXmXq mXmXmXmXq q mXmXmXq mXmXmXmXL.L.mXmXL.mXL.mXmXq q nX$ cXcXmXmXq mXmXmXmXq q mXmXmXq mXmXmXmXL.L.mXmXL.mXL.mXmXq q nX$ ",
"cXcXmXq q q mXq $ vXq mXmXq q q mXL.L.L.L.L.L.L.L.L.mXmXq mX$ $ cXcXmXq q q mXq $ vXq mXmXq q q mXL.L.L.L.L.L.L.L.L.mXmXq mX$ $ ",
"cXcXmXq q mXL.mXvXq q mXmXmXmXmXL.L.L.L.L.e e e e e L.mXmXmXnXnXcXcXmXq q mXL.mXvXq q mXmXmXmXmXL.L.L.L.L.e e e e e L.mXmXmXnXnX",
"cXcXmXmXq mXmXmXq q mXmXq mXmXmXL.L.L.L.L.L.L.e e e L.L.mXq $ vXcXcXmXmXq mXmXmXq q mXmXq mXmXmXL.L.L.L.L.L.L.e e e L.L.mXq $ vX",
"cXcXmXq q L.mXL.L.L.mXmXq mXmXmXmXmXmXmXmXmXL.e e L.mXL.L.L.q q cXcXmXq q L.mXL.L.L.mXmXq mXmXmXmXmXmXmXmXmXL.e e L.mXL.L.L.q q ",
"cXcXL.L.L.e e e e e L.mXq q q q mXmXmXmXmXmXL.mXmXq mXq mXL.nXq cXcXL.L.L.e e e e e L.mXq q q q mXmXmXmXmXmXL.mXmXq mXq mXL.nXq ",
"cXcXL.L.L.mXL.L.e L.L.mXq q q mXmXmXL.mXmXL.e mXq q mXmXmXmXq q cXcXL.L.L.mXL.L.e L.L.mXq q q mXmXmXL.mXmXL.e mXq q mXmXmXmXq q ",
"cXcXq mXmXmXmXmXmXmXL.q q vXq mXmXL.L.mXmXmXL.mXq mXmXq q q nXq cXcXq mXmXmXmXmXmXmXL.q q vXq mXmXL.L.mXmXmXL.mXq mXmXq q q nXq ",
"cXcXmXq mXq L.mXmXq q mXvXq q q mXe e L.L.L.L.mXq mXq q q q nX$ cXcXmXq mXq L.mXmXq q mXvXq q q mXe e L.L.L.L.mXq mXq q q q nX$ ",
"cXcXL.L.mXmXmXmXmXq q q $ q q q q L.L.mXmXL.mXmXq q q mXq q 7 $ cXcXL.L.mXmXmXmXmXq q q $ q q q q L.L.mXmXL.mXmXq q q mXq q 7 $ ",
"cXcXmXL.mXq q mXq mXq q q q q q q q mXL.L.L.L.mXq vXq q vXvX7 7 cXcXmXL.mXq q mXq mXq q q q q q q q mXL.L.L.L.mXq vXq q vXvX7 7 ",
"cXe q mXmXq mXmXmXmXq q mXmXmXmXq q q q q e L.mXq vX$ vXvX$ 7 $ cXe q mXmXq mXmXmXmXq q mXmXmXmXq q q q q e L.mXq vX$ vXvX$ 7 $ ",
"L.L.q q q L.L.L.mXq $ $ q mXmXq q q q q q q mXmXmXvX$ vX$ vXbXq L.L.q q q L.L.L.mXq $ $ q mXmXq q q q q q q mXmXmXvX$ vX$ vXbXq ",
"e cXq q q mXmXL.mXq $ q q q q q q mXq vXvXvXq mXmXmXvXvXvXq $ q e cXq q q mXmXL.mXq $ q q q q q q mXq vXvXvXq mXmXmXvXvXvXq $ q ",
"cXcXq q vXq nXnXvX$ $ vXvXnX$ vXq q q q q $ $ vXq nX$ vXq mXq q cXcXq q vXq nXnXvX$ $ vXvXnX$ vXq q q q q $ $ vXq nX$ vXq mXq q ",
"cXcXq mXmXq q $ $ q q q q q q q q mXq q q q q nX$ bXvXq q L.q nXcXcXq mXmXq q $ $ q q q q q q q q mXq q q q q nX$ bXvXq q L.q nX",
"cXcXq mXq mXq q q mXq mXq q nXvXq vXq q q q q q $ $ q q q mXnXq cXcXq mXq mXq q q mXq mXq q nXvXq vXq q q q q q $ $ q q q mXnXq ",
"cX  e e cXcXcXe e cXcXe e e mXmXe e e mXmXmXe mXmXe e e e e nXmXcX  e e cXcXcXe e cXcXe e e mXmXe e e mXmXmXe mXmXe e e e e nXmX",
"    e e mXe e e e cXcXcXe e e mXe e cXe e e e mXe e cXcXcXcXmXq     e e mXe e e e cXcXcXe e e mXe e cXe e e e mXe e cXcXcXcXmXq "
};