/* XPM */
static char *_fd33_btd73[] = {
/* columns rows colors chars-per-pixel */
"64 64 256 2 ",
"   c black",
".  c #0000A8",
"X  c #00A800",
"o  c #00A8A8",
"O  c #A80000",
"+  c #A800A8",
"@  c #A85400",
"#  c gray66",
"$  c gray33",
"%  c #5454FC",
"&  c #54FC54",
"*  c #54FCFC",
"=  c #FC5454",
"-  c #FC54FC",
";  c #FCFC54",
":  c gray99",
">  c #ECECEC",
",  c gainsboro",
"<  c #D0D0D0",
"1  c #C0C0C0",
"2  c #B4B4B4",
"3  c gray66",
"4  c #989898",
"5  c gray55",
"6  c #7C7C7C",
"7  c gray44",
"8  c #646464",
"9  c gray33",
"0  c #484848",
"q  c gray22",
"w  c #2C2C2C",
"e  c #202020",
"r  c #FC0000",
"t  c #EC0000",
"y  c #E00000",
"u  c #D40000",
"i  c #C80000",
"p  c #BC0000",
"a  c #B00000",
"s  c #A40000",
"d  c #980000",
"f  c #880000",
"g  c #7C0000",
"h  c #700000",
"j  c #640000",
"k  c #580000",
"l  c #4C0000",
"z  c #400000",
"x  c #FCD8D8",
"c  c #FCB8B8",
"v  c #FC9C9C",
"b  c #FC7C7C",
"n  c #FC5C5C",
"m  c #FC4040",
"M  c #FC2020",
"N  c #FC0000",
"B  c #FCA85C",
"V  c #FC9840",
"C  c #FC8820",
"Z  c #FC7800",
"A  c #E46C00",
"S  c #CC6000",
"D  c #B45400",
"F  c #9C4C00",
"G  c #FCFCD8",
"H  c #FCFCB8",
"J  c #FCFC9C",
"K  c #FCFC7C",
"L  c #FCF85C",
"P  c #FCF440",
"I  c #FCF420",
"U  c #FCF400",
"Y  c #E4D800",
"T  c #CCC400",
"R  c #B4AC00",
"E  c #9C9C00",
"W  c #848400",
"Q  c #706C00",
"!  c #585400",
"~  c #404000",
"^  c #D0FC5C",
"/  c #C4FC40",
"(  c #B4FC20",
")  c #A0FC00",
"_  c #90E400",
"`  c #80CC00",
"'  c #74B400",
"]  c #609C00",
"[  c #D8FCD8",
"{  c #BCFCB8",
"}  c #9CFC9C",
"|  c #80FC7C",
" . c #60FC5C",
".. c #40FC40",
"X. c #20FC20",
"o. c #00FC00",
"O. c #00FC00",
"+. c #00EC00",
"@. c #00E000",
"#. c #00D400",
"$. c #04C800",
"%. c #04BC00",
"&. c #04B000",
"*. c #04A400",
"=. c #049800",
"-. c #048800",
";. c #047C00",
":. c #047000",
">. c #046400",
",. c #045800",
"<. c #044C00",
"1. c #044000",
"2. c #D8FCFC",
"3. c #B8FCFC",
"4. c #9CFCFC",
"5. c #7CFCF8",
"6. c #5CFCFC",
"7. c #40FCFC",
"8. c #20FCFC",
"9. c #00FCFC",
"0. c #00E4E4",
"q. c #00CCCC",
"w. c #00B4B4",
"e. c #009C9C",
"r. c #008484",
"t. c #007070",
"y. c #005858",
"u. c #004040",
"i. c #5CBCFC",
"p. c #40B0FC",
"a. c #20A8FC",
"s. c #009CFC",
"d. c #008CE4",
"f. c #007CCC",
"g. c #006CB4",
"h. c #005C9C",
"j. c #D8D8FC",
"k. c #B8BCFC",
"l. c #9C9CFC",
"z. c #7C80FC",
"x. c #5C60FC",
"c. c #4040FC",
"v. c #2024FC",
"b. c #0004FC",
"n. c #0000FC",
"m. c #0000EC",
"M. c #0000E0",
"N. c #0000D4",
"B. c #0000C8",
"V. c #0000BC",
"C. c #0000B0",
"Z. c #0000A4",
"A. c #000098",
"S. c #000088",
"D. c #00007C",
"F. c #000070",
"G. c #000064",
"H. c #000058",
"J. c #00004C",
"K. c #000040",
"L. c #282828",
"P. c #FCE034",
"I. c #FCD424",
"U. c #FCCC18",
"Y. c #FCC008",
"T. c #FCB400",
"R. c #B420FC",
"E. c #A800FC",
"W. c #9800E4",
"Q. c #8000CC",
"!. c #7400B4",
"~. c #60009C",
"^. c #500084",
"/. c #440070",
"(. c #340058",
"). c #280040",
"_. c #FCD8FC",
"`. c #FCB8FC",
"'. c #FC9CFC",
"]. c #FC7CFC",
"[. c #FC5CFC",
"{. c #FC40FC",
"}. c #FC20FC",
"|. c #FC00FC",
" X c #E000E4",
".X c #C800CC",
"XX c #B400B4",
"oX c #9C009C",
"OX c #840084",
"+X c #6C0070",
"@X c #580058",
"#X c #400040",
"$X c #FCE8DC",
"%X c #FCE0D0",
"&X c #FCD8C4",
"*X c #FCD4BC",
"=X c #FCCCB0",
"-X c #FCC4A4",
";X c #FCBC9C",
":X c #FCB890",
">X c #FCB080",
",X c #FCA470",
"<X c #FC9C60",
"1X c #F0945C",
"2X c #E88C58",
"3X c #DC8854",
"4X c #D08050",
"5X c #C87C4C",
"6X c #BC7848",
"7X c #B47044",
"8X c #A86840",
"9X c #A0643C",
"0X c #9C6038",
"qX c #905C34",
"wX c #885830",
"eX c #80502C",
"rX c #744C28",
"tX c #6C4824",
"yX c #5C4020",
"uX c #543C1C",
"iX c #483818",
"pX c #403018",
"aX c #382C14",
"sX c #28200C",
"dX c #600064",
"fX c #006464",
"gX c #006060",
"hX c #00001C",
"jX c #00002C",
"kX c #302410",
"lX c #480048",
"zX c #500050",
"xX c #000034",
"cX c gray11",
"vX c #4C4C4C",
"bX c gray36",
"nX c gray25",
"mX c gray19",
"MX c #343434",
"NX c #D8F4F4",
"BX c #B8E8E8",
"VX c #9CDCDC",
"CX c #74C8C8",
"ZX c #48C0C0",
"AX c #20B4B4",
"SX c #20B0B0",
"DX c #00A4A4",
"FX c #009898",
"GX c #008C8C",
"HX c #008484",
"JX c #007C7C",
"KX c #007878",
"LX c #007474",
"PX c #007070",
"IX c #006C6C",
"UX c #980088",
/* pixels */
"L.L.L.L.L.L.L.L.L.L.L.L.L.L.L.L.L.L.L.L.L.L.L.L.L.L.L.L.L.L.L.L.L.L.L.L.L.L.L.L.L.L.L.L.L.L.L.L.L.L.L.L.L.L.L.L.L.L.L.L.L.L.L.L.",
"$ $ $ $ $ $ $ $ $ $ $ $ $ $ $ $ $ $ $ e e e e e $ $ $ $ 0 0 0 0 0 0 0 0 $ $ $ $ $ $ $ $ $ $ $ $ $ $ $ $ $ $ $ $ $ $ $ $ $ $ $ $ ",
"$ h.V.V.V.V.V.V.V.V.C.h.h.h.h.h.h.h.h.h.h.D.q e $ 0 vXh.h.h.h.h.h.h.h.h.h.nXq nX$ $ 0 h.h.h.h.h.h.0 (.nXnXnX0 0 0 0 0 0 0 0 0 $ ",
"$ V.M.N.B.B.B.B.B.B.V.6 6 6 6 6 6 6 6 6 6 6 6 6 6 7 7 7 7 7 7 7 7 7 7 7 7 7 7 7 7 7 7 7 7 7 7 7 7 7 7 7 7 7 Z.V.V.V.V.C.C.. Z.A.",
"$ V.N.B.. . . . C.C.Z.6 0 0 0 0 0 0 0 0 q q q q q q q q q q q q q q q q q q e e e e e e e e e e e e e e e e Z.B.N.B.B.B.B.B.B.B.",
"$ C.B.C.Z.Z.A.A.Z.Z.A.6 0 4 4 4 4 4 4 4 4 4 4 4 4 4 4 4 4 4 4 4 4 4 4 4 4 4 4 4 4 4 4 4 4 4 4 4 4 4 4 4 $ e D.Z.. . . . . . . . ",
"$ . V.. Z.Z.A.A.A.A.A.6 0 4 4 4 4 4 4 4 4 4 4 4 4 4 4 4 4 4 4 4 4 4 4 4 4 4 4 4 4 4 4 4 4 4 4 4 4 4 4 4 $ e G.S.A.A.A.A.A.A.A.A.",
"$ A.C.Z.Z.Z.A.A.A.A.A.6 0 4 4 4 4 4 4 4 4 4 4 4 4 4 4 4 4 4 4 4 4 4 4 4 4 4 4 4 4 4 4 4 4 4 4 4 4 4 4 4 $ e G.A.A.Z.Z.A.A.A.A.A.",
"$ A.. Z.A.A.A.A.A.A.A.6 0 4 4 4 4 4 4 4 4 4 4 4 4 4 6 8 0 0 0 0 0 0 0 6 5 4 4 4 4 4 4 4 4 4 4 4 4 4 4 4 $ e G.A.A.Z.Z.Z.A.A.A.A.",
"$ S.. Z.A.A.A.A.A.A.A.6 0 4 4 4 4 4 4 4 4 4 4 4 4 $ 0 0 e e e e e e e e e 0 0 6 4 4 4 4 4 4 4 4 4 4 4 4 8 e G.A.A.Z.A.A.A.A.A.A.",
"e F.. Z.A.A.Z.A.A.A.A.6 0 4 4 4 4 4 4 4 4 4 4 4 $ 0 e e q q $ q q q q q e e e 0 4 4 4 4 4 4 4 4 4 4 4 4 8 e G.S.A.A.S.S.S.S.S.S.",
"e G.Z.A.A.A.A.A.A.A.A.6 0 4 4 4 4 4 4 4 4 4 4 3X5X7 q q q $ $ 5 6 $ q 0 $ q q e e 4 4 4 4 4 4 4 4 4 4 4 8 e G.D.D.F.F.G.G.G.G.H.",
"e G.S.S.S.S.S.S.S.A.A.6 0 4 4 4 4 4 4 4 4 4 4 <X>X>X>X7 5X6X7 6 5 8 L.8 7 8 q L.e 0 4 4 4 4 4 4 4 4 4 4 8 e J.H.H.J.J.J.J.K.K.xX",
"q J.G.H.H.G.G.G.G.F.D.6 q 4 4 4 4 4 4 4 4 4 3X>X:X:X;X>X7 4X6X$ $ q L.0 $ 0 0 L.e e 8 4 4 4 4 4 4 4 4 4 8 e xXK.xXxXjXe e e e e ",
"q e e e e xXK.K.J.J.H.6 q 4 4 4 4 4 4 4 4 4 <X>X:X:X-X>X7 4Xq q q q L.q q q q L.e e 0 4 4 4 4 4 4 4 4 4 8 e e e e e e e e e e e ",
"$ q e e e e e e jXjXw 6 q 4 4 4 4 4 4 4 4 <X>X>X:X-X>X>X>X1Xq q q q L.q q q q L.e e L.4 4 4 4 4 4 4 4 4 8 e e L.L.q q q q q 0 $ ",
"A.S.D.G.H.q q e e e e 6 q 4 4 4 4 4 4 4 4 5X8X6X,X-X>X>X>X>X7X0X0XwXeXq q q L.e e e L.4 4 4 4 4 4 4 4 4 8 e $ $ $ $ $ $ F.S.A.Z.",
"B.B.B.C.. A.S.D.F.G.(.6 q 4 4 4 4 4 4 4 4 4 aXaXwX6X-X>X>X:X,X1X8X8X8X8XeXq e e e L.L.4 4 4 4 4 4 4 4 4 7 e w q $ $ S.A.C.B.B.B.",
"N.N.N.N.N.N.B.B.B.V.h.6 q 4 4 4 4 4 4 4 4 :X5X0 6X,X1X>X-X,X1X1X3X1X1X8XqXyXe e e L.0 4 4 4 4 4 4 4 4 4 7 e K.q $ S.C.B.B.B.B.V.",
"C.V.B.B.B.N.N.M.N.N.V.6 q 4 4 4 4 4 4 4 :X*X>X3X,X>X>X>X,X1X1X2X<XyX8X1XyXyXe e L.0 7 4 4 4 4 4 4 4 4 4 7 e K.q $ Z.B.N.B.V.. . ",
"Z.Z.. . . . V.V.V.V.h.6 q 4 4 4 4 4 4 -X*X-X,X<X3X:X>X,X1X1X2X3X,X4XeX,XyXyXe e L.7 4 4 4 4 4 4 4 4 4 4 7 e K.q $ . N.B.C.Z.Z.Z.",
"A.A.A.A.A.Z.. Z.Z.Z.A.6 q 4 4 4 4 4 4 2X6X6X6X5X<X3X<X<X<X2X3X3X4X8X1X6XyXyXe L.0 4 4 4 4 4 4 4 4 4 4 4 7 e K.q $ C.N.V.Z.A.A.A.",
"A.A.A.A.A.Z.Z.Z.Z.A.A.6 q 4 4 4 4 4 4 4 4 e yX,X3X,X<X<X1X2X3X5X<X,X4XrXyXyXe L.7 4 4 4 4 4 4 4 4 4 4 4 7 e xXe $ C.B.C.A.A.A.A.",
"A.A.A.A.A.Z.Z.A.A.Z.A.6 q 4 4 4 4 4 4 4 4 yX0X>X,X1X,X1X2X5X6X8X4XwXrXrXrXyXyX0 4 4 4 4 4 4 4 4 4 4 4 4 7 e xXe 0 V.B.. A.A.A.A.",
"A.A.A.A.A.A.A.A.A.A.A.6 q 4 4 4 4 4 4 4 4 :X<X<X>X,X1X1X5X8X8X0X6X3XqXqXrXyXyX7 4 4 4 4 4 4 4 4 4 4 4 4 7 e xXe 0 V.N.. A.A.A.A.",
"S.S.S.S.S.A.A.A.A.A.A.6 q 4 4 4 4 4 4 4 4 4X,X1X>X,X<X2X5X8X0X0X7X,X3X6XwXyXyX4 4 4 4 4 4 4 4 4 4 4 4 4 7 e xXe 0 V.B.Z.A.S.S.S.",
"G.G.G.G.F.D.S.S.S.S.S.6 q 4 4 4 4 4 4 4 4 ,X:X,X3X<X3X6X0XqX0X7X,X,X,X1X6X8XrXrX4 4 4 4 4 4 4 4 4 4 4 4 7 e xXe 0 . . S.G.G.G.G.",
"J.J.J.J.J.J.H.H.H.H.G.6 q 4 4 4 4 4 4 4 4 1X,X3X6X8X0XqXqX0X7X3X,X,X6X6XqXeXrXrX6 5 4 4 4 4 4 4 4 4 4 4 7 e cXe 0 D.F.H.J.J.J.J.",
"e e e e e xXxXxXxXxXmX6 q 4 4 4 4 4 4 4 4 4 4 4 0XwXwXwX0X7X3X,X6X6XqXqXqXeXeXuXrXrX7 5 4 4 4 4 4 4 4 4 7 e e e e e e e e e e e ",
"e e e e e e e e e e e 6 q 4 4 4 4 4 4 4 4 4 4 4 4 4 7X0X7X7X,X6XqXqX0XqXwXrXuXeXeXrXrXrX7 5 4 4 4 4 4 4 7 e q q e e e e e e e e ",
"$ $ 0 q q L.L.L.e e e 7 q 4 4 4 4 4 4 4 4 4 4 4 5 4X7X7X4X,XqXqX0X0X0XrXuXeX9X9X9XqXqXeXwXrX7 5 4 4 4 4 7 e J.H.G.G.G.G.J.q $ $ ",
"$ $ $ $ 0 0 0 0 0 0 0 7 e 4 4 4 4 4 4 4 4 4 5 5 4X6X4X4X7X0X0X7X7XrXuXeX9X7X7X7X7X7X7X7X0X0XwXrX7 4 4 4 7 e G.A.C.V.C.Z.D.L.q $ ",
"$ $ D.A.. C.V.V.V.V.h.7 e 4 4 4 4 4 4 4 4 5 7 4X4X6X4X5X9X7X7XwXuXeX9X7X7X7X7X7X7X7X7X7X7X7X0XwXrX6 4 4 7 e F.. B.B.V.A.F.L.L.$ ",
"$ 0 A.B.B.N.N.N.N.B.C.7 e 4 4 4 4 4 4 4 5 7 rX4X9X4X4X5X5X7XrXuX0X7X7X7X7X8X0XeX0X0X7X7X7X7X7X0XeXrX6 4 7 e F.A.. . A.D.J.e L.$ ",
"$ 0 . B.B.C.C.C.C.C.A.7 e 4 4 4 4 4 4 4 7 eXrX4X9X4X4X5X7XrXrX9X7X7X7X7X8X9XeXeX0X0X0X0XwXwXwXwXwXeXrX4 7 e G.A.A.A.S.G.K.e e $ ",
"$ 0 C.B.C.Z.Z.Z.Z.Z.A.7 e 4 4 4 4 4 4 5 eXeXrX4XeX9X4X7XrXrX7X7X7X7X7X7X9XqXrXeX0X0XwX0X0X0XwXwXwXwXrX4 7 e G.A.A.A.S.H.xXe e $ ",
"$ 0 V.N.. A.A.A.A.A.A.7 e 4 4 4 4 4 4 7 qXqXrX0XrX9XrXuX9X7X7X7X7X7X7X8XqXeXyXyX7X7X7X7X7X0X0XwXeXeXyX4 7 e G.A.A.A.S.H.xXe e $ ",
"$ 0 V.B.Z.A.A.A.A.A.S.7 e 4 4 4 4 4 4 0XqXqXrXeXrX9X9XqX7X7X7X7X7X7X7X9XeXyXyX7X7X4X7X7X7X0X7X0XrXrXiX4 7 e G.A.A.A.S.G.xXe e $ ",
"$ 0 . . A.A.A.A.A.A.S.7 e 4 4 4 4 4 5 0XqXqXyXrXwX9X9X7X7X7X7X7X7X7X8X8XeXyX7X7X4X7X7X4X0XqX7X0XrXyXiX4 7 e G.A.A.A.A.G.xXe e $ ",
"$ 0 S.S.F.D.S.A.A.A.S.7 e 4 4 4 4 4 7 0XqXqXrXrX9X9X6X6X5X5X7X7X7X7X0XeXyXyX7X4X7X7X4X7X0XqX7XwXrXyXiX4 7 e G.A.A.A.S.G.xXe e $ ",
"$ 0 H.H.J.J.G.S.S.S.S.7 e 4 4 4 4 4 9X0XqXqXrXwX9X6X6X5X5X6X6X6XrX0XwXyXyX0X0X7X7X7X4X0XqX9X7XwXrXyXiX4 7 e G.A.Z.A.S.H.xXe e $ ",
"$ 0 q q e e J.H.G.H.G.7 e 4 4 4 4 5 9X9XqXrXrX9X9X6X6X5X6X6X6XrX0XwXwXyX4 , , 0X4X4X7X9XqX7X7XeXyXiX$ 4 7 e G.A.A.A.S.H.xXe e $ ",
"$ $ $ $ q e e xXxXxXw 7 e 4 4 4 4 7 9XqXqXqXrX9X9XqXrXiXiX6X6XrXwXyXyX4 L.L.$ , u 4XrX0XqX7X7XrXyXiX7 4 7 e G.S.A.A.S.H.xXe e $ ",
"$ $ $ $ $ q e e e e e 7 e 4 4 4 5 0X0XqXqXrXwX9X7X6X6XiXiXrXrXwXyX4 L., L.< , , , u rXqX0X7X7XrXyXiX6 4 7 e G.S.S.S.F.H.xXe e $ ",
"$ $ $ $ $ $ q q L.L.L.7 e 4 4 4 7 8X8X8XqXrX9X9X6X6X5XeX8XwXwXyXg 4 $ L.L.L.L.$ 1 O d d qX7X7XrXiXyX4 4 7 e J.H.H.H.J.J.xXe e $ ",
"$ $ 0 0 $ $ $ $ $ $ $ 7 e 4 4 4 0X0X8X8XrXrX9X7X6X6X5XqX8XwXwXg s r , , , L., L.4 O d f f qXwXrXiXyX4 4 7 e jXxXxXxXxXxXjXe e $ ",
"$ h.. . C.. . A.S.D.$ 7 e 4 4 4 7X8XqXqXrXeX9X7X6X6X6X8XwXyX0Xd d u 4 L.L.$ , 4 6 d f f g h rXiXyXyX4 4 7 e e e e e e e e e q $ ",
"$ . N.M.N.N.N.B.B.B.h.7 e 4 4 4 7XqX8XqX9XqX9X7X6X6X6XwXyX2X6X5XeXuXu 4 1 1 4 6 d f f g h j rXiXyXyX4 4 7 e e e e e e e e q q $ ",
"$ C.M.M.B.B.B.B.B.B.C.7 e 4 4 3X5X7XqXrX7X0X0XwXwXwX6X2X5X9X2X5X5XeXuXu u O d d f f g h j j l yXyXrX4 4 7 e L.L.L.L.L.L.q q $ $ ",
"$ C.N.B.. Z.Z.Z.. C.Z.7 e 4 4 3X4X5X7X7X7X0X0X0X0X0X2X2X2X9X9X2X6X7X7XuXuXd d f f g h j j l yXyXrXrX4 4 7 e J.J.H.H.H.H.H.H.).e ",
"$ . B.. A.A.A.A.Z.Z.A.7 e 4 4 4 3X4X4X3X3X0X0X0X5X5X2X2X5X2X6X2X2X7X0X0XuXuXf f g h j j l yXyXyXrXwX4 4 7 e G.S.A.Z.Z.Z.A.S.G.e ",
"$ . B.. A.A.A.A.A.A.S.7 e 4 4 4 4 3X3X4 3X3X7X7X6X2X2X6X6X5X2X2X2X5X0X0XrXuXf g h j j l yXyXyXwXwX0X4 4 7 e D.. V.B.B.B.V.Z.G.e ",
"$ . B.. Z.Z.A.A.A.A.S.7 e 4 4 4 4 4 4 4 4 4 5X5X7X2X6X8X8X0X0X5X5X5X0XwXtXuXuXh j l yXyXyXyXrXwX0X7X4 4 7 e F.Z.. . . . . S.H.e ",
"$ . B.C.Z.A.A.A.A.A.S.7 e 4 4 4 4 4 4 4 4 4 1X5X5X6X7X7X8X8XeXeXeXeXwXrXrXrXtXj l yXyXrXrXwXqX0X7X5X4 4 7 e G.A.A.A.A.A.A.S.H.e ",
"$ . B.. A.A.A.A.A.A.A.7 e 4 4 4 4 4 4 4 4 4 4 1X5X5X5X5X5X6X7X7X8XwXwXwXwXwXwXl yXrXrXwXqX0X7X5X5X<X4 4 7 e G.S.A.A.A.A.A.S.H.e ",
"$ . B.. A.A.A.A.A.A.S.7 e 4 4 4 4 4 4 4 4 4 4 4 4 1X3X3X3X3X3X3X3X5X5X8X0X0X0XrXwXwXqX0X7X5X5X<X<X4 4 4 7 e G.S.A.A.A.A.A.S.J.e ",
"$ . B.. A.A.A.A.A.A.S.7 e 4 4 4 4 4 4 4 4 4 4 4 4 4 4 4 1X1X1X1X1X1X1X1X1X4X4X4X4X4X5X5X<X<X4 4 4 4 4 4 7 e G.S.S.S.S.S.S.G.J.e ",
"$ . B.Z.A.A.A.A.A.A.S.7 e 4 4 4 4 4 4 4 4 4 4 4 4 4 4 4 4 <X<X<X4 4 4 4 4 2X2X2X2X2X2X2X4 4 4 4 4 4 4 4 7 e H.G.G.G.G.G.G.H.K.e ",
"$ . B.. A.A.A.A.A.A.S.7 e 4 4 4 4 4 4 4 4 4 4 4 4 4 4 4 4 4 4 4 4 4 4 4 4 4 4 4 4 4 4 4 4 4 4 4 4 4 4 4 7 e K.J.J.J.J.J.J.K.jXe ",
"$ Z.V.A.S.S.S.S.S.S.S.7 e $ $ $ $ $ 8 8 8 8 8 8 8 7 7 7 7 7 7 7 7 7 7 7 7 7 7 7 7 7 7 7 7 7 7 7 7 7 7 7 7 e e e e e e e e e e e ",
"$ S.A.D.G.G.G.G.G.G.G.7 e e e e e e e e e e e e e e e e e e e e e e e e e e e e e e e e e e e e e e e e e e e e e e e e e e e e ",
"$ $ G.J.J.K.K.K.xXxXxXe cXcXcXcXe L.L.e e e e e e e e e e e e e e e e e e e e e e e e L.L.L.L.q q q q q q e q q q q q q q q q $ ",
"$ e e e e e e e e e e e e e e e e $ $ 0 q L.L.L.L.L.L.L.L.L.L.L.L.L.L.L.L.L.L.L.L.L.q $ $ $ $ $ $ $ $ $ $ $ $ $ $ $ $ $ $ $ $ $ ",
"q q q q q q q q q q q q q q q q q q q q q q q q q q q q q q q q q q q q q q q q q q q q q q q q q q q q q q q q q q q q q q q q "
};